<svg
    xmlns="http://www.w3.org/2000/svg"
    class="icon icon__apelsin"
    viewBox="0 0 80 20"
  >
    <path
      fill="url(#a)"
      d="M20.8 16.1V4a4 4 0 0 0-4-3.9H4A4 4 0 0 0 0 4v12a4 4 0 0 0 4 4h12.7a4 4 0 0 0 4-3.9Z"
    ></path>
    <path
      fill="#8BC53F"
      fill-rule="evenodd"
      d="m13.8 1-10 4.7 14.7-.3L16.7 2c-.5-1-1.8-1.4-2.9-1Z"
      clip-rule="evenodd"
    ></path>
    <path
      fill="#008F4D"
      fill-rule="evenodd"
      d="M16.1 2.7 3.1 6l16.1.4-.5-2a2.2 2.2 0 0 0-2.6-1.6Z"
      clip-rule="evenodd"
    ></path>
    <path
      fill="#fff"
      fill-rule="evenodd"
      d="M18.9 13c0-.7-.7-1.4-1.5-1.4s-1.5.7-1.5 1.5.7 1.4 1.5 1.4 1.5-.6 1.5-1.4ZM17 5.6H3c-.2 0-.3.2-.3.4 0 .1.1.3.3.3h14c2 0 3.7 1.6 3.7 3.7v.3-2.6c-.7-1.3-2.1-2-3.7-2Z"
      clip-rule="evenodd"
    ></path>
    <path
      fill="#BA3827"
      fill-rule="evenodd"
      d="M2.5 16.3c-.4.1-.6.5-.5.9.1.4.6.6 1 .4.3 0 .5-.5.4-.9a.7.7 0 0 0-1-.4Zm1.4-1c-.4.1-.6.5-.5.9.1.3.6.5 1 .4.3-.1.5-.5.4-.9a.7.7 0 0 0-1-.4ZM2 14.6c-.3 0-.5.5-.4.9.1.3.6.5 1 .4.4-.1.6-.5.4-1-.1-.3-.5-.5-1-.3ZM4.2 17c-.4.2-.6.6-.5 1 .2.3.6.5 1 .4.4-.2.6-.6.4-1a.7.7 0 0 0-1-.4Z"
      clip-rule="evenodd"
    ></path>
    <path
      fill="#00527D"
      fill-rule="evenodd"
      d="m33.6 10.2-1.5-4-1.4 4h2.9Zm-4.4 4.1h-2.3l4.2-10.8h2l4.2 10.8h-2.2l-.8-2.2H30l-.8 2.2Zm10.9-3.9a2 2 0 0 0 2.1 2.1c.5 0 1-.2 1.4-.6.4-.4.6-.9.6-1.5 0-.7-.2-1.2-.6-1.6a2 2 0 0 0-1.4-.6 2 2 0 0 0-1.5.6c-.4.4-.6 1-.6 1.6Zm2.3-4a3.7 3.7 0 0 1 2.7 1 4.1 4.1 0 0 1 1.2 3 4.1 4.1 0 0 1-1.2 2.9 3.8 3.8 0 0 1-2.7 1.1 3 3 0 0 1-.9-.1 2.9 2.9 0 0 1-1.2-.7v3.5h-2V6.4h1.4l.4.8.6-.4.8-.3 1-.2Zm9.1 1.8a2 2 0 0 0-2 1.6h4a2 2 0 0 0-2-1.6ZM55 12c0 .3-.2.6-.5 1l-.8.7c-.3.3-.6.4-1 .6l-1.3.2a4.2 4.2 0 0 1-3.8-2.5c-.2-.4-.4-1-.4-1.5 0-.6.2-1.1.4-1.6a4.2 4.2 0 0 1 3.8-2.5 4 4 0 0 1 2.7 1.1c.4.4.7.8.9 1.3a4.2 4.2 0 0 1 .2 2.4h-5.7c0 .4.3.8.6 1 .3.3.7.4 1.3.4h.6l.5-.3c.2 0 .3-.2.4-.3H55Zm4 2.3h-2V3.5h2v10.8Zm3.5-2.5c0 .3.1.5.4.7.2.2.5.3.8.3.4 0 .7-.1.9-.3l.3-.6c0-.2-.1-.3-.3-.4l-.8-.3a45.6 45.6 0 0 0-2-.7c-.3-.1-.6-.4-.8-.7-.2-.2-.3-.6-.3-1a2.1 2.1 0 0 1 .8-1.8l1-.5 1.1-.2c1 0 1.8.3 2.3.7.5.5.9 1 1 1.7h-2a1 1 0 0 0-.4-.5c-.2-.2-.5-.2-.8-.2a1 1 0 0 0-.7.2c-.2.1-.3.3-.3.5s.1.4.3.5c.3 0 .5.2.8.3a114 114 0 0 0 2 .6c.4.2.6.5.8.8.2.3.3.6.3 1.1 0 .3 0 .6-.2 1l-.6.7a3 3 0 0 1-1 .5c-.3.2-.7.2-1.2.2-1 0-1.9-.2-2.4-.7-.6-.5-1-1-1-1.9h2Zm8 2.5h-2V6.4h2v8Zm-1-9c-.3 0-.5 0-.8-.3a1 1 0 0 1 0-1.5c.3-.3.5-.4.8-.4.3 0 .6.1.8.4a1 1 0 0 1 0 1.5 1 1 0 0 1-.8.4Zm7.2 1c.5 0 1 .1 1.3.3a3 3 0 0 1 1.8 1.7l.2 1.4v4.6h-2V10a1.7 1.7 0 0 0-1.7-1.7c-.6 0-1 .2-1.3.5-.3.3-.5.7-.5 1.2v4.4h-2v-8H74l.4.8a4.3 4.3 0 0 1 1.4-.7 3 3 0 0 1 .9-.2Z"
      clip-rule="evenodd"
    ></path>
    <defs>
      <linearGradient
        id="a"
        x1="20.9"
        x2=".8"
        y1="0"
        y2="20.9"
        gradientUnits="userSpaceOnUse"
      >
        <stop stop-color="#FCB950"></stop>
        <stop offset="1" stop-color="#EF4324"></stop>
      </linearGradient>
    </defs>
  </svg>