<svg width="50" height="20" viewBox="0 0 50 20" fill="none" xmlns="http://www.w3.org/2000/svg">
<g clip-path="url(#clip0_56_18196)">
<path d="M8.23544 6.18494C8.06089 5.90239 7.83327 5.65631 7.56516 5.4603C7.29438 5.27515 6.99769 5.13107 6.68474 5.03276C6.34471 4.92151 5.99364 4.84741 5.63766 4.81174C5.22104 4.77113 4.80263 4.75178 4.38405 4.75377H0.76092C0.676935 4.74584 0.592212 4.75484 0.51177 4.78025C0.431328 4.80565 0.356803 4.84695 0.29261 4.90168C0.228417 4.95642 0.175862 5.02348 0.138058 5.09889C0.100253 5.17431 0.0779692 5.25655 0.0725252 5.34073C0.0725252 5.34073 0.0725252 5.36247 0.0725252 5.37334V11.2574C0.574844 12.3353 1.40902 13.2241 2.45292 13.7937V12.6125C2.44497 12.5214 2.45507 12.4296 2.48265 12.3423C2.51022 12.2551 2.55473 12.1742 2.61363 12.1042C2.67252 12.0342 2.74465 11.9765 2.82587 11.9344C2.90709 11.8923 2.99582 11.8666 3.08697 11.8589H4.17391C5.65698 11.8589 6.7886 11.5485 7.56878 10.9277C8.34897 10.3069 8.7451 9.38665 8.75717 8.16683C8.75844 7.8153 8.71708 7.46492 8.63399 7.12335C8.55116 6.79158 8.41667 6.47491 8.23544 6.18494ZM6.11229 9.21032C5.98593 9.42775 5.79811 9.60296 5.57244 9.71394C5.32792 9.83073 5.06373 9.90078 4.79347 9.92046C4.49661 9.95743 4.1977 9.97558 3.89855 9.97481H2.85509C2.60509 9.97481 2.4493 9.77191 2.4493 9.47481V7.04726C2.4457 6.994 2.45391 6.9406 2.47334 6.89088C2.49278 6.84116 2.52297 6.79635 2.56174 6.75965C2.60051 6.72296 2.64691 6.69528 2.69762 6.67861C2.74834 6.66193 2.80211 6.65667 2.85509 6.6632H3.89855C4.23671 6.6632 4.55555 6.67286 4.85506 6.69219C5.12199 6.705 5.38398 6.76896 5.62679 6.88059C5.85018 6.98006 6.03655 7.14741 6.15939 7.35886C6.2981 7.64238 6.36172 7.95676 6.34417 8.2719C6.35121 8.59856 6.27118 8.9212 6.11229 9.20669V9.21032ZM2.45655 14.1487C1.56307 13.8264 0.749822 13.3147 0.0725252 12.6487V15.493C0.0649379 15.5471 0.0683838 15.6023 0.0826558 15.6551C0.0969278 15.7079 0.121731 15.7573 0.155575 15.8003C0.189419 15.8433 0.231604 15.879 0.279595 15.9052C0.327586 15.9315 0.380392 15.9478 0.434838 15.9531H2.07249C2.50727 15.9531 2.45655 15.4893 2.45655 15.4893V14.1487ZM24.9634 7.85161H23.5504C23.4156 7.84279 23.2819 7.88197 23.1732 7.9622C23.0644 8.04244 22.9876 8.15856 22.9562 8.29002L21.3149 12.8118C21.3149 12.8118 19.8657 8.6922 19.757 8.37335C19.7265 8.22624 19.6466 8.09396 19.5306 7.99842C19.4147 7.90288 19.2696 7.84981 19.1193 7.84799H17.8186C17.3549 7.84799 17.3549 8.21031 17.4165 8.35162C17.4781 8.49292 19.257 13.3698 19.9527 15.2357C20.0622 15.4654 20.139 15.7093 20.1809 15.9604C20.1358 16.2081 20.0422 16.4445 19.9055 16.656C19.8527 16.7457 19.7921 16.8305 19.7244 16.9096C21.065 16.5111 22.6229 15.0582 23.4055 13.4893C24.1953 11.3154 25.2352 8.41683 25.2823 8.26828C25.333 8.04002 25.333 7.85161 24.9634 7.85161ZM18.6664 17.3517C18.5452 17.3484 18.4243 17.3387 18.3041 17.3227C18.1556 17.3009 17.873 17.3227 17.873 17.5763V18.6633C17.873 19.0799 18.0759 19.1089 18.1809 19.1379C18.5165 19.2115 18.8591 19.248 19.2027 19.2466C19.6086 19.2573 20.0116 19.1742 20.3802 19.0038C20.7174 18.8335 21.0168 18.5969 21.2606 18.3082C21.537 17.9922 21.7708 17.6414 21.9562 17.2647C22.1567 16.8637 22.3475 16.4205 22.5287 15.935L22.7388 15.3589C22.3186 15.7756 20.4635 17.5256 18.6664 17.3517ZM16.5288 9.15234C16.4518 8.96926 16.3467 8.79933 16.2172 8.64872C16.0863 8.5092 15.9377 8.3874 15.7752 8.2864C15.5996 8.16686 15.4128 8.06492 15.2172 7.98205C15.0181 7.9049 14.8134 7.84312 14.6049 7.79726C14.3663 7.74447 14.1241 7.70935 13.8803 7.69219C13.6194 7.66562 13.3271 7.65234 13.0035 7.65234C10.8441 7.65234 9.61465 8.3335 9.31513 9.69583C9.30236 9.7466 9.30074 9.79955 9.31038 9.85101C9.32003 9.90248 9.34072 9.95124 9.37102 9.99394C9.40133 10.0366 9.44053 10.0723 9.48592 10.0984C9.53131 10.1245 9.58182 10.1404 9.63397 10.1451H10.9637C11.326 10.1451 11.326 10.0328 11.4637 9.72119C11.524 9.55155 11.6322 9.40304 11.7752 9.29365C12.115 9.07434 12.5168 8.97135 12.9202 9.00017C13.2963 8.96172 13.6741 9.05522 13.989 9.26466C14.2291 9.48883 14.371 9.79873 14.3839 10.127C14.3839 10.5763 14.2462 10.8734 13.6883 10.8734C12.3658 10.8263 10.9455 10.9748 10.1448 11.435C9.75067 11.6756 9.42711 12.0161 9.20696 12.4221C8.98681 12.828 8.87789 13.285 8.89123 13.7466C8.88212 14.1061 8.95523 14.463 9.10499 14.7901C9.24606 15.0743 9.45061 15.3222 9.70281 15.5147C9.96754 15.7306 10.2732 15.8908 10.6013 15.9857C10.9721 16.0861 11.3549 16.1349 11.739 16.1306C12.2557 16.1387 12.7705 16.0653 13.2643 15.9132C13.7009 15.7344 14.1135 15.5019 14.4926 15.2212V15.4748C14.4926 15.7248 14.5687 15.9495 14.8549 15.9495H16.3947C16.7063 15.9495 16.7788 15.7285 16.7788 15.4531V10.7103C16.7806 10.4145 16.7601 10.119 16.7172 9.82626C16.683 9.59459 16.6197 9.36816 16.5288 9.15234ZM14.4238 13.8118C14.4238 13.8118 14.0252 14.6451 12.6122 14.6451C12.2734 14.6607 11.9384 14.5681 11.6557 14.3806C11.5313 14.284 11.4329 14.1578 11.3697 14.0136C11.3064 13.8693 11.2802 13.7115 11.2934 13.5545C11.2778 13.3437 11.3266 13.1331 11.4334 12.9507C11.5401 12.7682 11.6998 12.6225 11.8912 12.5328C12.4628 12.3132 13.0727 12.2109 13.6846 12.2321C13.7783 12.2179 13.8739 12.2243 13.9648 12.2506C14.0558 12.2769 14.14 12.3227 14.2116 12.3846C14.2832 12.4466 14.3405 12.5234 14.3797 12.6096C14.4188 12.6958 14.4388 12.7895 14.4382 12.8842L14.4238 13.8118Z" fill="#333333"/>
<path d="M49.6373 10.7611C49.8158 11.0483 49.9104 11.3796 49.9104 11.7177C49.9104 12.0558 49.8158 12.3871 49.6373 12.6742C49.275 13.225 47.3004 15.3338 46.6482 16.0113C46.083 16.5983 45.3185 17.1925 44.5612 17.1925H28.8765C26.7533 17.1925 26.6265 16.4678 26.6265 14.8519V8.26105C26.6265 6.60519 27.1156 6.12329 28.5685 6.12329H44.5975C45.3475 6.12329 46.0178 6.50736 46.7714 7.28275C47.4308 7.94582 49.3765 10.3698 49.6373 10.7611Z" fill="#33CCCC"/>
<path d="M30.188 8.67057V8.63071C30.188 8.41696 30.188 8.21045 29.8257 8.21045H28.5105C28.2025 8.21045 28.188 8.37711 28.188 8.63796V10.377C28.7068 9.65477 29.3931 9.06922 30.188 8.67057Z" fill="white"/>
<path d="M38.9958 14.9608V14.8666V10.6706C38.9958 8.91446 38.2204 8.03638 36.6697 8.03638C36.2381 8.04149 35.8165 8.16698 35.4523 8.39872C35.0511 8.64903 34.6926 8.96223 34.3907 9.32632C34.2541 8.9328 33.9885 8.59698 33.6371 8.37336C33.2375 8.15307 32.7851 8.04654 32.3291 8.06536C31.6586 8.06789 31.0076 8.2921 30.4777 8.70309C30.3618 8.81904 28.1842 10.5148 28.1842 12.283V14.968C28.1842 15.0514 28.1407 15.3775 28.5067 15.3775H29.8726C30.2965 15.3775 30.2567 15.0985 30.2567 14.9825V10.6344C30.4849 10.3264 30.9523 9.59083 31.7241 9.59083C31.8475 9.5796 31.9717 9.60156 32.0838 9.65443C32.1959 9.70731 32.2919 9.78918 32.3618 9.89158C32.5167 10.2009 32.5843 10.5467 32.5574 10.8916V14.2796V14.9753C32.5574 15.0586 32.5139 15.3847 32.8799 15.3847H34.2313C34.6552 15.3847 34.6154 15.1057 34.6154 14.9898V14.8955V10.6199C34.8618 10.3119 35.34 9.57634 36.0828 9.57634C36.2076 9.56612 36.333 9.58845 36.4467 9.64116C36.5604 9.69387 36.6584 9.77516 36.7313 9.87708C36.8888 10.1857 36.9577 10.5318 36.9306 10.8772V14.2651V14.9608C36.9306 15.0441 36.8871 15.3702 37.2531 15.3702H38.619C39.0465 15.3485 38.9958 15.0731 38.9958 14.9608Z" fill="white"/>
<path d="M46.5295 13.2536C46.2973 13.8777 45.8719 14.4115 45.3152 14.7771C44.7585 15.1427 44.0996 15.321 43.4344 15.2862C41.3468 15.2862 39.9551 13.8659 39.9551 11.7355C39.9551 9.60506 41.4048 8.1123 43.3619 8.1123C45.319 8.1123 46.6238 9.46738 46.7071 11.6522C46.7071 11.9311 46.6383 12.1775 46.2867 12.1775H41.8578C41.8868 13.3478 42.4486 13.9891 43.4489 13.9891C43.7145 13.9958 43.9764 13.9263 44.2037 13.7889C44.4311 13.6515 44.6144 13.4519 44.7319 13.2138C44.7782 13.1464 44.8405 13.0915 44.9133 13.0542C44.986 13.0169 45.0669 12.9983 45.1487 13H46.2903C46.3246 12.9984 46.3588 13.0045 46.3903 13.0179C46.4219 13.0313 46.45 13.0516 46.4727 13.0774C46.4953 13.1031 46.5118 13.1336 46.5211 13.1667C46.5303 13.1997 46.5319 13.2344 46.5259 13.2681L46.5295 13.2536ZM43.3691 9.46375C42.5392 9.46375 41.9774 10.0398 41.8542 10.9891H44.8261C44.75 10.1594 44.3006 9.46375 43.3691 9.46375Z" fill="white"/>
</g>
<defs>
<clipPath id="clip0_56_18196">
<rect width="50" height="14.4928" fill="white" transform="translate(0 4.75366)"/>
</clipPath>
</defs>
</svg>